<svg xmlns="http://www.w3.org/2000/svg" viewBox="0 0 195.85 226.87"><defs><style>.cls-1{fill:#231f20;}.cls-2,.cls-3,.cls-4,.cls-5,.cls-6{fill:none;stroke:#231f20;stroke-miterlimit:10;}.cls-2,.cls-3,.cls-4{stroke-width:2px;}.cls-3{stroke-dasharray:6.87 6.87;}.cls-4{stroke-dasharray:6.85 6.85;}.cls-6{stroke-width:8px;}</style></defs><g id="Layer_1" data-name="Layer 1"><path class="cls-1" d="M395.28,596.54" transform="translate(-297.63 -498.46)"/><line class="cls-2" x1="180.98" y1="48.35" x2="177.94" y2="50.09"/><line class="cls-3" x1="171.98" y1="53.51" x2="103.45" y2="92.86"/><polyline class="cls-2" points="100.47 94.57 97.44 96.31 94.4 94.56"/><line class="cls-4" x1="88.46" y1="91.15" x2="20.12" y2="51.86"/><line class="cls-2" x1="17.15" y1="50.15" x2="14.11" y2="48.4"/><path class="cls-5" d="M478,546.93v95.79l-83,47.89-82.95-47.89V546.93L395.06,499Z" transform="translate(-297.63 -498.46)"/><path class="cls-6" d="M312.11,642.72" transform="translate(-297.63 -498.46)"/><path class="cls-6" d="M395.06,598.82" transform="translate(-297.63 -498.46)"/><path class="cls-6" d="M477.66,642.72" transform="translate(-297.63 -498.46)"/><path class="cls-6" d="M394.7,598.82" transform="translate(-297.63 -498.46)"/><polyline class="cls-6" points="55.96 123.44 97.08 146.25 138.7 123.36"/><path class="cls-1" d="M317.55,682.51l1.53-9.94-11.65-6.73-7.85,6.29L297.63,671,322,651.69l2.13,1.23-4.59,30.72Zm1.86-11.83,1.81-11.37c.14-.91.29-1.81.45-2.71l.45-2.71c-.73.64-1.44,1.24-2.13,1.82s-1.4,1.17-2.14,1.75l-9,7.15Z" transform="translate(-297.63 -498.46)"/><path class="cls-1" d="M322.88,685.59l14.91-25.83,1.69,1-14.91,25.82Z" transform="translate(-297.63 -498.46)"/><path class="cls-1" d="M351.29,689.87c-1.74,3-3.77,5-6.09,5.8a9.22,9.22,0,0,1-10.33-3.88,7.77,7.77,0,0,1-.86-4.32l-.07,0c-.37.76-1,1.9-1.87,3.41l-4.08,7-1.7-1,12.29-21.29c.54-.94,1.23-2.22,2.05-3.84l1.51.87c-.47,1.12-1.07,2.34-1.79,3.68l.07,0a7.6,7.6,0,0,1,8.8-.11,7.64,7.64,0,0,1,4.08,5.63Q353.84,685.46,351.29,689.87Zm-1.72-1c1.51-2.62,2.14-4.87,1.88-6.77a6,6,0,0,0-3.27-4.52q-6.35-3.66-11,4.35-2.23,3.87-1.86,6.76a6.17,6.17,0,0,0,3.38,4.63,6.33,6.33,0,0,0,5.82.62C346.38,693.18,348.06,691.49,349.57,688.87Z" transform="translate(-297.63 -498.46)"/><path class="cls-1" d="M362.88,708.68l6.26-10.85a8.88,8.88,0,0,0,1.51-5.19A4.74,4.74,0,0,0,368,689a6.25,6.25,0,0,0-3.51-.88,6.47,6.47,0,0,0-3.46,1.29,10.65,10.65,0,0,0-2.92,3.4l-5.66,9.8-1.71-1,14.9-25.81,1.71,1-4.55,7.87c-.48.83-1.18,2-2.12,3.39l.07,0a7.15,7.15,0,0,1,3.94-1.53,7.45,7.45,0,0,1,4.34,1.1,6.7,6.7,0,0,1,3.61,4.47q.5,2.66-1.64,6.36l-6.42,11.11Z" transform="translate(-297.63 -498.46)"/><path class="cls-1" d="M382.52,720l-1.56-.9,1.86-3.52-.09-.05a8.35,8.35,0,0,1-4.29,1.42,7.64,7.64,0,0,1-3.92-1.1,7.2,7.2,0,0,1-3.5-3.82,6.08,6.08,0,0,1,5.1-7.61c1.92-.12,4.4.63,7.43,2.27l3.35,1.79.65-1.13c1.05-1.83,1.43-3.39,1.12-4.69a4.92,4.92,0,0,0-2.55-3.17,7.11,7.11,0,0,0-3.76-1.21,4.43,4.43,0,0,0-2.94,1.53L378,698.58a6.24,6.24,0,0,1,4.1-2,9.23,9.23,0,0,1,4.83,1.5,7.06,7.06,0,0,1,3.7,4.3c.39,1.67-.08,3.66-1.4,6Zm-6.78-5.36a5.94,5.94,0,0,0,3.19.79,7.15,7.15,0,0,0,3.41-1,6.64,6.64,0,0,0,2.52-2.4l1.28-2.22-3.19-1.7c-2.59-1.39-4.63-2-6.1-2a4.11,4.11,0,0,0-3.46,2.28,4,4,0,0,0-.46,3.29A5.62,5.62,0,0,0,375.74,714.66Z" transform="translate(-297.63 -498.46)"/><path class="cls-1" d="M426.84,713.83,419,707.54l-11.65,6.73,1.53,9.94-2,1.12-4.55-30.73,2.13-1.23,24.3,19.33Zm-9.32-7.53-8.94-7.24c-.72-.58-1.42-1.17-2.12-1.75l-2.12-1.75q.27,1.43.51,2.76t.45,2.73L407,712.37Z" transform="translate(-297.63 -498.46)"/><path class="cls-1" d="M437,683.79a7.46,7.46,0,0,1,.9,5.77,8.85,8.85,0,0,1-3.57,5l13.85,6.92-2.16,1.25-13.45-6.87-4.67,2.7,6.34,11-1.77,1-14.45-25,6.57-3.79a10.93,10.93,0,0,1,7.25-1.73A7.23,7.23,0,0,1,437,683.79Zm-1.79,1.08a5.65,5.65,0,0,0-4.06-3,9,9,0,0,0-5.84,1.48L420.72,686l6.35,11,4.78-2.76a8.38,8.38,0,0,0,4-4.33A6,6,0,0,0,435.25,684.87Z" transform="translate(-297.63 -498.46)"/><path class="cls-1" d="M462.25,693.86a10.35,10.35,0,0,1-9.44.86c-3.14-1.26-5.87-3.91-8.22-8s-3.21-7.73-2.63-11a11.09,11.09,0,0,1,5.86-7.85,12.13,12.13,0,0,1,5.7-1.78,10.24,10.24,0,0,1,5.66,1.69L458,669.52c-2.87-2-5.94-2-9.24-.09a8.94,8.94,0,0,0-4.74,6.69q-.62,4.29,2.43,9.57,3.16,5.47,7.1,7.16a9.32,9.32,0,0,0,12.61-9.45l2-.17Q468.59,690.21,462.25,693.86Z" transform="translate(-297.63 -498.46)"/><path class="cls-1" d="M491.7,676.38,484.56,664l-14.63,8.45,7.14,12.36-1.78,1-14.45-25,1.78-1,6.4,11.08,14.63-8.45-6.4-11.08,1.78-1,14.45,25Z" transform="translate(-297.63 -498.46)"/></g><g id="Layer_3" data-name="Layer 3"><polygon class="cls-1" points="14.49 144.25 97.44 96.31 97.44 192.15 93.42 189.83 93.42 108.33 22.7 149 14.49 144.25"/><polygon class="cls-1" points="180.39 144.25 97.44 96.31 97.44 192.15 101.46 189.83 101.46 108.33 172.17 149 180.39 144.25"/></g></svg>